<svg xmlns="http://www.w3.org/2000/svg" width="25.308" height="22.5" viewBox="0 0 25.308 22.5"><path d="M17.676,15.083l1.406-1.406a.353.353,0,0,1,.6.25v6.389a2.11,2.11,0,0,1-2.109,2.109H2.109A2.11,2.11,0,0,1,0,20.316V4.849A2.11,2.11,0,0,1,2.109,2.74H14.126a.354.354,0,0,1,.25.6L12.971,4.748a.348.348,0,0,1-.25.1H2.109V20.316H17.575V15.329A.346.346,0,0,1,17.676,15.083Zm6.881-8.867L13.019,17.754l-3.972.439a1.815,1.815,0,0,1-2-2l.439-3.972L19.021.68a2.564,2.564,0,0,1,3.634,0l1.9,1.9a2.574,2.574,0,0,1,0,3.638ZM20.216,7.574,17.663,5.021,9.5,13.189l-.321,2.869,2.869-.321Zm2.847-3.5-1.9-1.9a.459.459,0,0,0-.65,0L19.157,3.531,21.71,6.084l1.358-1.358A.468.468,0,0,0,23.063,4.072Z" transform="translate(0 0.075)"/></svg>