<svg xmlns="http://www.w3.org/2000/svg" width="8.653" height="11.538" viewBox="0 0 8.653 11.538"><defs><style>.a{fill:#42526e;}</style></defs><path class="a" d="M8.293,1.082h.09a.27.27,0,0,0,.27-.27V.27A.27.27,0,0,0,8.383,0H.27A.27.27,0,0,0,0,.27V.811a.27.27,0,0,0,.27.27h.09A5.585,5.585,0,0,0,2.55,5.769a5.586,5.586,0,0,0-2.19,4.687H.27a.27.27,0,0,0-.27.27v.541a.27.27,0,0,0,.27.27H8.383a.27.27,0,0,0,.27-.27v-.541a.27.27,0,0,0-.27-.27h-.09A5.585,5.585,0,0,0,6.1,5.769,5.586,5.586,0,0,0,8.293,1.082Zm-6.851,0H7.211c0,2.29-1.291,4.146-2.884,4.146S1.442,3.372,1.442,1.082Zm5.769,9.374H1.442c0-2.29,1.291-4.146,2.884-4.146S7.211,8.166,7.211,10.456Z"/></svg>