<svg xmlns="http://www.w3.org/2000/svg" width="75.206" height="75.202" viewBox="0 0 75.206 75.202"><defs><style>.a{fill:#42526e;}</style></defs><path class="a" d="M51.037,28.528A11.536,11.536,0,1,1,40.27,16.283,11.531,11.531,0,0,1,51.037,28.528Z" transform="translate(6.042 3.51)"/><path class="a" d="M30.024,0h2.2l-.2,11.345H30.578Z" transform="translate(6.481)"/><path class="a" d="M32.228,63.864h-2.2l.205-11.339h1.449Z" transform="translate(6.481 11.338)"/><path class="a" d="M25.993.434,28.182.148l1.271,11.273-1.43.188Z" transform="translate(5.611 0.032)"/><path class="a" d="M36.476,63.46l-2.182.282L33.021,52.472l1.432-.195Z" transform="translate(7.128 11.284)"/><path class="a" d="M22.052,1.391,24.179.82l2.739,11.012-1.4.368Z" transform="translate(4.76 0.177)"/><path class="a" d="M40.67,62.489l-2.12.563L35.809,52.046,37.2,51.67Z" transform="translate(7.73 11.153)"/><path class="a" d="M18.258,2.847,20.3,2.01l4.151,10.559-1.337.554Z" transform="translate(3.941 0.434)"/><path class="a" d="M44.7,60.975l-2.034.846-4.15-10.56,1.334-.554Z" transform="translate(8.314 10.945)"/><path class="a" d="M14.686,4.787l1.9-1.1,5.5,9.932-1.246.717Z" transform="translate(3.17 0.796)"/><path class="a" d="M48.491,58.951l-1.906,1.1-5.5-9.919,1.254-.73Z" transform="translate(8.869 10.664)"/><path class="a" d="M11.382,7.176l1.746-1.335,6.748,9.123-1.147.878Z" transform="translate(2.457 1.261)"/><path class="a" d="M51.977,56.451l-1.744,1.34-6.739-9.129,1.143-.878Z" transform="translate(9.389 10.315)"/><path class="a" d="M8.422,9.977,9.978,8.419l7.876,8.169L16.827,17.6Z" transform="translate(1.818 1.817)"/><path class="a" d="M55.116,53.512,53.561,55.07,45.682,46.9,46.7,45.876Z" transform="translate(9.861 9.903)"/><path class="a" d="M5.842,13.125l1.337-1.744,8.881,7.071-.879,1.142Z" transform="translate(1.261 2.457)"/><path class="a" d="M57.828,50.184l-1.34,1.744-8.873-7.064.879-1.15Z" transform="translate(10.278 9.436)"/><path class="a" d="M3.691,16.582l1.1-1.9,9.729,5.841-.727,1.255Z" transform="translate(0.797 3.17)"/><path class="a" d="M60.085,46.526l-1.1,1.908-9.717-5.852.717-1.244Z" transform="translate(10.634 8.923)"/><path class="a" d="M2.011,20.292l.837-2.034,10.411,4.531-.553,1.334Z" transform="translate(0.434 3.941)"/><path class="a" d="M61.851,42.609,61,44.642,50.6,40.11l.557-1.335Z" transform="translate(10.922 8.37)"/><path class="a" d="M.822,24.176l.57-2.127L12.3,25.187l-.378,1.395Z" transform="translate(0.177 4.759)"/><path class="a" d="M63.074,38.488l-.567,2.122L51.6,37.474l.374-1.392Z" transform="translate(11.138 7.789)"/><path class="a" d="M.152,28.178l.285-2.186,11.221,1.686-.193,1.432Z" transform="translate(0.033 5.611)"/><path class="a" d="M63.751,34.233l-.286,2.18L52.248,34.728,52.43,33.3Z" transform="translate(11.278 7.188)"/><path class="a" d="M0,32.225l0-2.2,11.344.205v1.446Z" transform="translate(0 6.481)"/><path class="a" d="M63.867,30.023l0,2.2-11.338-.2V30.576Z" transform="translate(11.338 6.481)"/><path class="a" d="M.437,36.474l-.285-2.18,11.27-1.274.187,1.431Z" transform="translate(0.033 7.128)"/><path class="a" d="M63.459,25.992l.286,2.186L52.474,29.455l-.195-1.435Z" transform="translate(11.285 5.611)"/><path class="a" d="M1.392,40.669l-.57-2.124,11.013-2.737.371,1.393Z" transform="translate(0.177 7.729)"/><path class="a" d="M62.492,22.049l.567,2.127L52.047,26.914l-.377-1.4Z" transform="translate(11.153 4.759)"/><path class="a" d="M2.848,44.7l-.837-2.033L12.57,38.516l.554,1.331Z" transform="translate(0.434 8.314)"/><path class="a" d="M60.978,18.258l.845,2.034L51.261,24.443l-.548-1.336Z" transform="translate(10.947 3.941)"/><path class="a" d="M4.789,48.488l-1.1-1.908,9.93-5.494.719,1.255Z" transform="translate(0.797 8.869)"/><path class="a" d="M58.953,14.684l1.1,1.9-9.919,5.494-.73-1.243Z" transform="translate(10.664 3.17)"/><path class="a" d="M7.179,51.975,5.842,50.231l9.124-6.737.879,1.14Z" transform="translate(1.261 9.388)"/><path class="a" d="M56.451,11.381l1.34,1.744-9.125,6.749-.879-1.15Z" transform="translate(10.315 2.457)"/><path class="a" d="M9.978,55.113,8.422,53.555l8.169-7.879L17.608,46.7Z" transform="translate(1.818 9.859)"/><path class="a" d="M53.518,8.42l1.555,1.556L46.9,17.851l-1.021-1.024Z" transform="translate(9.904 1.818)"/><path class="a" d="M13.128,57.827l-1.746-1.34,7.078-8.875,1.137.879Z" transform="translate(2.457 10.278)"/><path class="a" d="M50.186,5.841l1.744,1.335-7.067,8.877-1.147-.878Z" transform="translate(9.436 1.261)"/><path class="a" d="M16.582,60.083l-1.9-1.1,5.841-9.717,1.252.717Z" transform="translate(3.17 10.634)"/><path class="a" d="M46.53,3.689l1.906,1.1-5.851,9.724L41.34,13.79Z" transform="translate(8.924 0.796)"/><path class="a" d="M20.292,61.847,18.258,61l4.534-10.4,1.333.553Z" transform="translate(3.941 10.922)"/><path class="a" d="M42.609,2.01l2.034.837L40.109,13.258l-1.33-.553Z" transform="translate(8.371 0.434)"/><path class="a" d="M24.179,63.068,22.052,62.5,25.188,51.6l1.4.377Z" transform="translate(4.76 11.138)"/><path class="a" d="M38.49.82l2.12.573L37.477,12.3l-1.391-.378Z" transform="translate(7.789 0.177)"/><path class="a" d="M28.182,63.752l-2.191-.285,1.685-11.224,1.438.187Z" transform="translate(5.61 11.277)"/><path class="a" d="M34.233.148l2.18.286L34.734,11.659,33.3,11.465Z" transform="translate(7.189 0.032)"/></svg>