<svg xmlns="http://www.w3.org/2000/svg" width="19.594" height="15.92" viewBox="0 0 19.594 15.92"><defs><style>.a{fill:#42526e;}</style></defs><path class="a" d="M3.061,60.246H.612A.612.612,0,0,0,0,60.858v2.449a.612.612,0,0,0,.612.612H3.061a.612.612,0,0,0,.612-.612V60.858A.612.612,0,0,0,3.061,60.246ZM3.061,48H.612A.612.612,0,0,0,0,48.612v2.449a.612.612,0,0,0,.612.612H3.061a.612.612,0,0,0,.612-.612V48.612A.612.612,0,0,0,3.061,48Zm0,6.123H.612A.612.612,0,0,0,0,54.735v2.449a.612.612,0,0,0,.612.612H3.061a.612.612,0,0,0,.612-.612V54.735A.612.612,0,0,0,3.061,54.123Zm15.92,6.735H6.735a.612.612,0,0,0-.612.612V62.7a.612.612,0,0,0,.612.612H18.981a.612.612,0,0,0,.612-.612V61.471A.612.612,0,0,0,18.981,60.858Zm0-12.246H6.735a.612.612,0,0,0-.612.612v1.225a.612.612,0,0,0,.612.612H18.981a.612.612,0,0,0,.612-.612V49.225A.612.612,0,0,0,18.981,48.612Zm0,6.123H6.735a.612.612,0,0,0-.612.612v1.225a.612.612,0,0,0,.612.612H18.981a.612.612,0,0,0,.612-.612V55.348A.612.612,0,0,0,18.981,54.735Z" transform="translate(0 -48)"/></svg>