<svg xmlns="http://www.w3.org/2000/svg" width="20.84" height="15.882" viewBox="0 0 20.84 15.882"><defs><style>.a{fill:#d16969;}</style></defs><path class="a" d="M20.552,72.622,13.6,79.569a.994.994,0,0,1-1.7-.7V74.9H6.285a.99.99,0,0,1-.992-.992v-3.97a.99.99,0,0,1,.992-.992h5.624v-3.97a1,1,0,0,1,1.7-.7l6.947,6.947A1,1,0,0,1,20.552,72.622ZM7.94,79.362V77.708a.5.5,0,0,0-.5-.5H3.97a1.322,1.322,0,0,1-1.323-1.323v-7.94A1.322,1.322,0,0,1,3.97,66.626H7.443a.5.5,0,0,0,.5-.5V64.476a.5.5,0,0,0-.5-.5H3.97A3.971,3.971,0,0,0,0,67.949v7.94a3.971,3.971,0,0,0,3.97,3.97H7.443A.5.5,0,0,0,7.94,79.362Z" transform="translate(0 -63.979)"/></svg>