<svg xmlns="http://www.w3.org/2000/svg" width="20.563" height="23.5" viewBox="0 0 20.563 23.5"><path d="M12.3,19.094h1.1a.551.551,0,0,0,.551-.551V8.629a.551.551,0,0,0-.551-.551H12.3a.551.551,0,0,0-.551.551v9.914A.551.551,0,0,0,12.3,19.094ZM19.828,3.672H16.046l-1.561-2.6A2.2,2.2,0,0,0,12.595,0H7.968A2.2,2.2,0,0,0,6.078,1.07l-1.561,2.6H.734A.734.734,0,0,0,0,4.406v.734a.734.734,0,0,0,.734.734h.734V21.3a2.2,2.2,0,0,0,2.2,2.2H16.891a2.2,2.2,0,0,0,2.2-2.2V5.875h.734a.734.734,0,0,0,.734-.734V4.406A.734.734,0,0,0,19.828,3.672ZM7.887,2.337A.275.275,0,0,1,8.124,2.2h4.314a.275.275,0,0,1,.236.134l.8,1.335H7.086Zm9,18.96H3.672V5.875H16.891Zm-9.73-2.2h1.1a.551.551,0,0,0,.551-.551V8.629a.551.551,0,0,0-.551-.551H7.16a.551.551,0,0,0-.551.551v9.914A.551.551,0,0,0,7.16,19.094Z"/></svg>